<svg width="202" height="469" viewBox="0 0 202 469" fill="none" xmlns="http://www.w3.org/2000/svg">
<path d="M193.27 1.54691C193.027 0.755065 192.188 0.310499 191.396 0.553948C190.604 0.797396 190.159 1.63667 190.403 2.42852L193.27 1.54691ZM105.715 189.883L105.443 191.358L105.715 189.883ZM115.131 147.899L114.77 149.355L115.131 147.899ZM115.131 343.536L113.855 342.746L115.131 343.536ZM5.05888 466.17C5.75367 465.718 5.95114 464.789 5.49996 464.095C5.04878 463.4 4.11979 463.202 3.425 463.654L5.05888 466.17ZM9.69114 459.323C9.02151 459.81 8.87405 460.749 9.36178 461.418C9.84951 462.088 10.7877 462.235 11.4574 461.748L9.69114 459.323ZM17.6348 457.062C18.286 456.55 18.3987 455.607 17.8866 454.956C17.3744 454.305 16.4314 454.192 15.7802 454.704L17.6348 457.062ZM21.7189 449.889C21.0827 450.42 20.9971 451.366 21.5277 452.002C22.0583 452.638 23.0042 452.724 23.6404 452.193L21.7189 449.889ZM29.5152 447.17C30.1385 446.624 30.2013 445.676 29.6556 445.053C29.1099 444.43 28.1622 444.367 27.5389 444.913L29.5152 447.17ZM33.2633 439.791C32.6517 440.35 32.6089 441.298 33.1676 441.91C33.7264 442.522 34.6752 442.564 35.2868 442.006L33.2633 439.791ZM40.9236 436.755C41.5245 436.184 41.5492 435.235 40.9788 434.634C40.4085 434.033 39.4591 434.009 38.8582 434.579L40.9236 436.755ZM44.3833 429.239C43.7928 429.82 43.785 430.769 44.366 431.36C44.947 431.951 45.8967 431.958 46.4872 431.377L44.3833 429.239ZM51.9327 425.928C52.5134 425.337 52.5051 424.388 51.9143 423.807C51.3234 423.226 50.3737 423.235 49.793 423.825L51.9327 425.928ZM55.1275 418.308C54.5565 418.908 54.5802 419.857 55.1805 420.428C55.7807 420.999 56.7302 420.976 57.3011 420.375L55.1275 418.308ZM62.5775 414.739C63.1389 414.13 63.1001 413.181 62.4908 412.62C61.8816 412.058 60.9326 412.097 60.3713 412.706L62.5775 414.739ZM65.5201 407.03C64.9683 407.648 65.0219 408.596 65.6399 409.148C66.2578 409.7 67.206 409.646 67.7578 409.028L65.5201 407.03ZM72.8542 403.231C73.3963 402.604 73.328 401.657 72.7016 401.115C72.0752 400.573 71.1279 400.641 70.5858 401.268L72.8542 403.231ZM75.5646 395.423C75.0323 396.058 75.1154 397.004 75.7501 397.537C76.3849 398.069 77.331 397.986 77.8633 397.351L75.5646 395.423ZM82.7732 391.403C83.2956 390.76 83.1978 389.815 82.5548 389.293C81.9118 388.77 80.9671 388.868 80.4447 389.511L82.7732 391.403ZM85.232 383.522C84.7198 384.173 84.8326 385.116 85.4837 385.629C86.1349 386.141 87.0779 386.028 87.5901 385.377L85.232 383.522ZM92.3125 379.272C92.8141 378.613 92.6862 377.672 92.0269 377.17C91.3676 376.669 90.4265 376.796 89.9249 377.456L92.3125 379.272ZM94.5195 371.313C94.0288 371.98 94.1721 372.919 94.8395 373.41C95.507 373.901 96.4459 373.757 96.9366 373.09L94.5195 371.313ZM101.458 366.831C101.938 366.155 101.779 365.219 101.103 364.739C100.427 364.26 99.4911 364.419 99.0117 365.094L101.458 366.831ZM103.395 358.804C102.927 359.488 103.102 360.422 103.786 360.889C104.47 361.357 105.403 361.182 105.871 360.498L103.395 358.804ZM110.172 354.089C110.627 353.397 110.436 352.466 109.744 352.011C109.052 351.555 108.121 351.747 107.666 352.439L110.172 354.089ZM111.822 345.998C111.379 346.698 111.588 347.624 112.288 348.067C112.988 348.51 113.915 348.301 114.357 347.601L111.822 345.998ZM118.517 340.797C118.932 340.08 118.687 339.163 117.97 338.748C117.253 338.333 116.335 338.578 115.92 339.295L118.517 340.797ZM119.79 332.165C119.414 332.903 119.707 333.806 120.446 334.182C121.184 334.559 122.087 334.265 122.463 333.527L119.79 332.165ZM126.04 326.077C126.381 325.322 126.046 324.434 125.292 324.092C124.537 323.751 123.648 324.086 123.307 324.841L126.04 326.077ZM126.5 317.368C126.19 318.136 126.561 319.01 127.33 319.32C128.098 319.63 128.972 319.259 129.282 318.491L126.5 317.368ZM132.219 310.796C132.5 310.017 132.096 309.157 131.317 308.876C130.537 308.595 129.678 308.999 129.397 309.778L132.219 310.796ZM132.022 302.082C131.768 302.871 132.201 303.716 132.99 303.97C133.778 304.224 134.624 303.791 134.878 303.003L132.022 302.082ZM137.275 295.126C137.504 294.33 137.043 293.499 136.247 293.271C135.451 293.042 134.62 293.502 134.391 294.299L137.275 295.126ZM136.516 286.441C136.312 287.244 136.797 288.06 137.6 288.264C138.403 288.468 139.219 287.983 139.423 287.18L136.516 286.441ZM141.331 279.173C141.511 278.364 141.002 277.563 140.193 277.383C139.385 277.203 138.583 277.712 138.403 278.521L141.331 279.173ZM140.058 270.547C139.901 271.361 140.434 272.147 141.247 272.304C142.061 272.46 142.847 271.928 143.004 271.114L140.058 270.547ZM144.442 263.011C144.575 262.193 144.02 261.422 143.203 261.289C142.385 261.156 141.614 261.711 141.481 262.529L144.442 263.011ZM142.672 254.473C142.563 255.294 143.14 256.048 143.961 256.157C144.783 256.266 145.537 255.689 145.646 254.868L142.672 254.473ZM146.609 246.692C146.694 245.868 146.094 245.132 145.27 245.047C144.446 244.962 143.709 245.562 143.625 246.386L146.609 246.692ZM144.331 238.276C144.272 239.103 144.894 239.82 145.72 239.879C146.546 239.938 147.264 239.316 147.323 238.489L144.331 238.276ZM147.774 230.266C147.806 229.438 147.16 228.741 146.333 228.71C145.505 228.678 144.808 229.324 144.776 230.151L147.774 230.266ZM144.944 222.022C144.942 222.85 145.612 223.524 146.44 223.526C147.269 223.528 147.942 222.858 147.944 222.03L144.944 222.022ZM147.808 213.792C147.777 212.964 147.082 212.317 146.254 212.347C145.426 212.378 144.779 213.073 144.81 213.901L147.808 213.792ZM144.34 205.809C144.406 206.634 145.13 207.25 145.955 207.183C146.781 207.117 147.397 206.393 147.33 205.568L144.34 205.809ZM146.461 197.337C146.352 196.516 145.599 195.938 144.777 196.046C143.956 196.155 143.378 196.908 143.487 197.73L146.461 197.337ZM142.191 189.727C142.349 190.54 143.136 191.072 143.949 190.914C144.763 190.756 145.294 189.969 145.136 189.156L142.191 189.727ZM143.271 181.083C143.053 180.284 142.229 179.812 141.43 180.029C140.63 180.246 140.158 181.071 140.376 181.87L143.271 181.083ZM137.921 174.214C138.213 174.989 139.077 175.382 139.853 175.091C140.629 174.8 141.021 173.935 140.73 173.159L137.921 174.214ZM137.329 165.508C136.944 164.775 136.037 164.493 135.304 164.878C134.57 165.263 134.288 166.169 134.673 166.903L137.329 165.508ZM130.44 160.206C130.944 160.864 131.885 160.989 132.543 160.486C133.201 159.982 133.326 159.041 132.823 158.383L130.44 160.206ZM126.944 152.244C126.303 151.719 125.358 151.814 124.833 152.455C124.309 153.096 124.403 154.041 125.044 154.565L126.944 152.244ZM118.441 150.568C119.205 150.887 120.084 150.526 120.403 149.762C120.722 148.997 120.361 148.119 119.597 147.8L118.441 150.568ZM111.665 145.697C110.844 145.581 110.086 146.153 109.971 146.973C109.855 147.794 110.427 148.552 111.247 148.668L111.665 145.697ZM104.207 148.553C105.03 148.453 105.616 147.706 105.516 146.883C105.417 146.061 104.669 145.475 103.847 145.574L104.207 148.553ZM96.2383 147.775C95.4932 148.137 95.1828 149.035 95.545 149.78C95.9072 150.525 96.8048 150.835 97.5498 150.473L96.2383 147.775ZM92.0239 154.555C92.588 153.948 92.5535 152.999 91.9468 152.435C91.3401 151.871 90.391 151.906 89.8269 152.512L92.0239 154.555ZM85.5527 159.224C85.2391 159.99 85.6064 160.866 86.3732 161.18C87.14 161.494 88.0158 161.126 88.3294 160.359L85.5527 159.224ZM86.8571 167.109C86.8923 166.281 86.2499 165.581 85.4222 165.546C84.5945 165.511 83.895 166.153 83.8598 166.981L86.8571 167.109ZM84.8992 174.856C85.1495 175.646 85.9926 176.083 86.7823 175.833C87.572 175.583 88.0093 174.74 87.759 173.95L84.8992 174.856ZM90.9755 180.037C90.4641 179.385 89.5212 179.271 88.8695 179.783C88.2177 180.294 88.1039 181.237 88.6152 181.889L90.9755 180.037ZM94.5042 187.2C95.2019 187.647 96.1296 187.443 96.5762 186.745C97.0228 186.048 96.8192 185.12 96.1214 184.673L94.5042 187.2ZM102.51 187.569C101.717 187.329 100.88 187.777 100.639 188.57C100.399 189.362 100.847 190.2 101.64 190.44L102.51 187.569ZM109.508 191.953C110.332 192.043 111.072 191.447 111.161 190.624C111.25 189.8 110.655 189.06 109.832 188.971L109.508 191.953ZM117.536 189.221C116.709 189.257 116.067 189.957 116.104 190.785C116.14 191.613 116.84 192.254 117.668 192.218L117.536 189.221ZM125.788 191.236C126.601 191.075 127.129 190.285 126.967 189.473C126.806 188.66 126.016 188.132 125.204 188.293L125.788 191.236ZM132.659 186.237C131.878 186.514 131.469 187.371 131.746 188.152C132.022 188.933 132.88 189.341 133.66 189.065L132.659 186.237ZM141.142 185.834C141.88 185.457 142.173 184.554 141.796 183.816C141.419 183.078 140.515 182.786 139.777 183.163L141.142 185.834ZM146.47 179.22C145.782 179.681 145.597 180.613 146.058 181.301C146.519 181.989 147.451 182.174 148.139 181.713L146.47 179.22ZM154.634 176.85C155.271 176.321 155.358 175.375 154.829 174.738C154.3 174.101 153.354 174.014 152.717 174.543L154.634 176.85ZM158.502 169.261C157.916 169.846 157.915 170.796 158.5 171.382C159.086 171.968 160.036 171.969 160.622 171.384L158.502 169.261ZM166.09 165.458C166.627 164.828 166.552 163.881 165.921 163.343C165.291 162.806 164.344 162.882 163.807 163.512L166.09 165.458ZM168.672 157.362C168.181 158.029 168.324 158.968 168.992 159.459C169.659 159.949 170.598 159.806 171.089 159.139L168.672 157.362ZM175.643 152.498C176.089 151.8 175.885 150.872 175.188 150.426C174.49 149.979 173.562 150.183 173.116 150.881L175.643 152.498ZM177.156 144.128C176.751 144.851 177.009 145.765 177.732 146.17C178.455 146.574 179.369 146.316 179.774 145.593L177.156 144.128ZM183.503 138.469C183.867 137.725 183.56 136.826 182.815 136.462C182.071 136.098 181.173 136.406 180.809 137.15L183.503 138.469ZM184.091 129.983C183.765 130.745 184.118 131.626 184.88 131.952C185.642 132.278 186.523 131.925 186.849 131.163L184.091 129.983ZM189.827 123.705C190.116 122.928 189.72 122.065 188.944 121.776C188.167 121.487 187.304 121.883 187.015 122.659L189.827 123.705ZM189.593 115.203C189.34 115.992 189.775 116.836 190.563 117.089C191.352 117.342 192.197 116.907 192.45 116.118L189.593 115.203ZM194.728 108.425C194.945 107.625 194.474 106.801 193.675 106.583C192.875 106.365 192.051 106.837 191.833 107.636L194.728 108.425ZM193.743 99.9776C193.56 100.785 194.066 101.589 194.874 101.772C195.682 101.956 196.486 101.449 196.669 100.641L193.743 99.9776ZM198.279 92.7845C198.428 91.9697 197.889 91.188 197.074 91.0386C196.259 90.8893 195.478 91.4287 195.328 92.2436L198.279 92.7845ZM196.592 84.4493C196.476 85.2696 197.047 86.0285 197.867 86.1442C198.688 86.26 199.446 85.6888 199.562 84.8685L196.592 84.4493ZM200.521 76.907C200.603 76.0826 200.001 75.3477 199.177 75.2654C198.353 75.1831 197.618 75.7847 197.535 76.609L200.521 76.907ZM198.161 68.7362C198.112 69.5631 198.743 70.2731 199.57 70.322C200.396 70.3708 201.106 69.74 201.155 68.913L198.161 68.7362ZM201.466 60.8996C201.481 60.0713 200.822 59.3874 199.994 59.3721C199.166 59.3568 198.482 60.0158 198.467 60.8441L201.466 60.8996ZM198.453 52.9459C198.471 53.7742 199.157 54.4307 199.985 54.4124C200.814 54.394 201.47 53.7078 201.452 52.8796L198.453 52.9459ZM201.11 44.8659C201.058 44.0391 200.346 43.4112 199.519 43.4634C198.692 43.5157 198.064 44.2282 198.116 45.055L201.11 44.8659ZM197.456 37.1848C197.542 38.0087 198.28 38.6066 199.104 38.5202C199.928 38.4338 200.526 37.6959 200.439 36.872L197.456 37.1848ZM199.437 28.916C199.316 28.0964 198.554 27.53 197.734 27.6508C196.914 27.7716 196.348 28.534 196.469 29.3535L199.437 28.916ZM195.153 21.5733C195.308 22.387 196.094 22.9205 196.908 22.7649C197.721 22.6094 198.255 21.8237 198.099 21.01L195.153 21.5733ZM196.424 13.1669C196.234 12.3607 195.426 11.8616 194.619 12.0521C193.813 12.2426 193.314 13.0507 193.505 13.8569L196.424 13.1669ZM191.522 6.22C191.748 7.01708 192.577 7.48023 193.374 7.25448C194.171 7.02873 194.634 6.19956 194.409 5.40249L191.522 6.22ZM1.7666 468.221C2.8171 467.596 3.91566 466.912 5.05888 466.17L3.425 463.654C2.31127 464.377 1.24639 465.04 0.233398 465.642L1.7666 468.221ZM11.4574 461.748C13.4265 460.313 15.4894 458.75 17.6348 457.062L15.7802 454.704C13.6612 456.371 11.6277 457.912 9.69114 459.323L11.4574 461.748ZM23.6404 452.193C25.5499 450.601 27.5104 448.925 29.5152 447.17L27.5389 444.913C25.5515 446.653 23.6093 448.313 21.7189 449.889L23.6404 452.193ZM35.2868 442.006C37.1371 440.315 39.0176 438.564 40.9236 436.755L38.8582 434.579C36.9658 436.375 35.0993 438.114 33.2633 439.791L35.2868 442.006ZM46.4872 431.377C48.2856 429.608 50.102 427.791 51.9327 425.928L49.793 423.825C47.9741 425.676 46.1696 427.481 44.3833 429.239L46.4872 431.377ZM57.3011 420.375C59.0513 418.536 60.8111 416.656 62.5775 414.739L60.3713 412.706C58.6157 414.612 56.8667 416.479 55.1275 418.308L57.3011 420.375ZM67.7578 409.028C69.4542 407.128 71.1539 405.196 72.8542 403.231L70.5858 401.268C68.8957 403.221 67.2062 405.142 65.5201 407.03L67.7578 409.028ZM77.8633 397.351C79.5026 395.396 81.14 393.413 82.7732 391.403L80.4447 389.511C78.8215 391.509 77.194 393.48 75.5646 395.423L77.8633 397.351ZM87.5901 385.377C89.1712 383.366 90.7461 381.331 92.3125 379.272L89.9249 377.456C88.3684 379.502 86.8033 381.524 85.232 383.522L87.5901 385.377ZM96.9366 373.09C98.4548 371.025 99.9627 368.938 101.458 366.831L99.0117 365.094C97.526 367.188 96.0279 369.261 94.5195 371.313L96.9366 373.09ZM105.871 360.498C107.319 358.38 108.754 356.244 110.172 354.089L107.666 352.439C106.258 354.579 104.833 356.701 103.395 358.804L105.871 360.498ZM114.357 347.601C115.045 346.513 115.728 345.421 116.406 344.325L113.855 342.746C113.182 343.834 112.504 344.918 111.822 345.998L114.357 347.601ZM116.406 344.325C117.121 343.171 117.824 341.994 118.517 340.797L115.92 339.295C115.242 340.467 114.554 341.618 113.855 342.746L116.406 344.325ZM122.463 333.527C123.696 331.108 124.889 328.622 126.04 326.077L123.307 324.841C122.173 327.345 121.001 329.789 119.79 332.165L122.463 333.527ZM129.282 318.491C130.299 315.97 131.278 313.403 132.219 310.796L129.397 309.778C128.469 312.351 127.503 314.883 126.5 317.368L129.282 318.491ZM134.878 303.003C135.714 300.406 136.514 297.779 137.275 295.126L134.391 294.299C133.639 296.921 132.849 299.517 132.022 302.082L134.878 303.003ZM139.423 287.18C140.097 284.527 140.734 281.856 141.331 279.173L138.403 278.521C137.812 281.175 137.182 283.817 136.516 286.441L139.423 287.18ZM143.004 271.114C143.523 268.418 144.003 265.714 144.442 263.011L141.481 262.529C141.046 265.204 140.571 267.879 140.058 270.547L143.004 271.114ZM145.646 254.868C146.009 252.135 146.33 249.408 146.609 246.692L143.625 246.386C143.349 249.072 143.031 251.77 142.672 254.473L145.646 254.868ZM147.323 238.489C147.52 235.728 147.67 232.984 147.774 230.266L144.776 230.151C144.674 232.836 144.525 235.546 144.331 238.276L147.323 238.489ZM147.944 222.03C147.952 219.247 147.906 216.498 147.808 213.792L144.81 213.901C144.907 216.567 144.951 219.276 144.944 222.022L147.944 222.03ZM147.33 205.568C147.104 202.764 146.815 200.017 146.461 197.337L143.487 197.73C143.834 200.357 144.118 203.053 144.34 205.809L147.33 205.568ZM145.136 189.156C144.596 186.369 143.975 183.674 143.271 181.083L140.376 181.87C141.059 184.384 141.664 187.007 142.191 189.727L145.136 189.156ZM140.73 173.159C139.712 170.449 138.58 167.892 137.329 165.508L134.673 166.903C135.86 169.164 136.943 171.607 137.921 174.214L140.73 173.159ZM132.823 158.383C131.041 156.054 129.084 153.995 126.944 152.244L125.044 154.565C126.985 156.154 128.783 158.041 130.44 160.206L132.823 158.383ZM119.597 147.8C118.276 147.248 116.908 146.795 115.492 146.443L114.77 149.355C116.038 149.67 117.261 150.075 118.441 150.568L119.597 147.8ZM115.492 146.443C114.183 146.119 112.907 145.871 111.665 145.697L111.247 148.668C112.383 148.827 113.557 149.054 114.77 149.355L115.492 146.443ZM103.847 145.574C101.048 145.913 98.504 146.674 96.2383 147.775L97.5498 150.473C99.5069 149.522 101.728 148.852 104.207 148.553L103.847 145.574ZM89.8269 152.512C87.9855 154.493 86.5536 156.777 85.5527 159.224L88.3294 160.359C89.1985 158.234 90.438 156.261 92.0239 154.555L89.8269 152.512ZM83.8598 166.981C83.7475 169.618 84.0852 172.288 84.8992 174.856L87.759 173.95C87.0537 171.725 86.7593 169.405 86.8571 167.109L83.8598 166.981ZM88.6152 181.889C90.1835 183.887 92.1435 185.689 94.5042 187.2L96.1214 184.673C94.0405 183.341 92.3328 181.767 90.9755 180.037L88.6152 181.889ZM101.64 190.44C102.846 190.806 104.113 191.113 105.443 191.358L105.986 188.408C104.763 188.183 103.605 187.901 102.51 187.569L101.64 190.44ZM105.443 191.358C106.803 191.609 108.158 191.807 109.508 191.953L109.832 188.971C108.556 188.832 107.274 188.645 105.986 188.408L105.443 191.358ZM117.668 192.218C120.409 192.097 123.118 191.766 125.788 191.236L125.204 188.293C122.68 188.795 120.123 189.107 117.536 189.221L117.668 192.218ZM133.66 189.065C136.201 188.165 138.696 187.084 141.142 185.834L139.777 183.163C137.444 184.355 135.069 185.383 132.659 186.237L133.66 189.065ZM148.139 181.713C150.354 180.231 152.52 178.607 154.634 176.85L152.717 174.543C150.679 176.236 148.595 177.798 146.47 179.22L148.139 181.713ZM160.622 171.384C162.495 169.514 164.318 167.536 166.09 165.458L163.807 163.512C162.085 165.532 160.316 167.45 158.502 169.261L160.622 171.384ZM171.089 159.139C172.657 157.006 174.176 154.791 175.643 152.498L173.116 150.881C171.682 153.121 170.2 155.283 168.672 157.362L171.089 159.139ZM179.774 145.593C181.067 143.281 182.311 140.905 183.503 138.469L180.809 137.15C179.64 139.538 178.421 141.866 177.156 144.128L179.774 145.593ZM186.849 131.163C187.891 128.726 188.885 126.238 189.827 123.705L187.015 122.659C186.089 125.148 185.114 127.591 184.091 129.983L186.849 131.163ZM192.45 116.118C193.259 113.592 194.019 111.026 194.728 108.425L191.833 107.636C191.136 110.195 190.389 112.719 189.593 115.203L192.45 116.118ZM196.669 100.641C197.257 98.0512 197.794 95.4311 198.279 92.7845L195.328 92.2436C194.851 94.8491 194.322 97.4283 193.743 99.9776L196.669 100.641ZM199.562 84.8685C199.934 82.2356 200.254 79.5806 200.521 76.907L197.535 76.609C197.273 79.2421 196.957 81.8567 196.592 84.4493L199.562 84.8685ZM201.155 68.913C201.312 66.2559 201.416 63.5837 201.466 60.8996L198.467 60.8441C198.418 63.4875 198.315 66.1192 198.161 68.7362L201.155 68.913ZM201.452 52.8796C201.393 50.216 201.28 47.5438 201.11 44.8659L198.116 45.055C198.283 47.6917 198.394 50.323 198.453 52.9459L201.452 52.8796ZM200.439 36.872C200.162 34.2218 199.828 31.5689 199.437 28.916L196.469 29.3535C196.854 31.9645 197.182 34.5759 197.456 37.1848L200.439 36.872ZM198.099 21.01C197.599 18.3919 197.041 15.7766 196.424 13.1669L193.505 13.8569C194.111 16.4241 194.66 18.9972 195.153 21.5733L198.099 21.01ZM194.409 5.40249C194.044 4.11516 193.665 2.82986 193.27 1.54691L190.403 2.42852C190.791 3.69005 191.164 4.95399 191.522 6.22L194.409 5.40249Z" fill="black" fill-opacity="0.2"/>
</svg>
