<svg width="24" height="24" viewBox="0 0 24 24" fill="none" xmlns="http://www.w3.org/2000/svg">
<g id="Icon">
<path id="Vector" d="M17.3341 12.3591C17.3341 15.3131 14.9465 17.7072 12.0005 17.7072C9.05456 17.7072 6.66696 15.3131 6.66696 12.3591C6.66696 9.40513 9.05456 7.01104 12.0005 7.01104C14.9465 7.01104 17.3341 9.40513 17.3341 12.3591ZM12.0005 8.34806C9.75459 8.34806 8.00035 10.1071 8.00035 12.3591C8.00035 14.5735 9.75459 16.3701 12.0005 16.3701C14.209 16.3701 16.0007 14.5735 16.0007 12.3591C16.0007 10.1071 14.209 8.34806 12.0005 8.34806ZM20.0259 6.3676C21.976 8.18093 23.2802 10.316 23.8969 11.8452C24.0344 12.1753 24.0344 12.5429 23.8969 12.873C23.2802 14.3646 21.976 16.4997 20.0259 18.3506C18.0633 20.1806 15.3673 21.7182 12.0005 21.7182C8.63371 21.7182 5.93776 20.1806 3.97601 18.3506C2.02593 16.4997 0.722536 14.3646 0.102551 12.873C-0.0341838 12.5429 -0.0341838 12.1753 0.102551 11.8452C0.722536 10.316 2.02593 8.18093 3.97601 6.3676C5.93776 4.53924 8.63371 3 12.0005 3C15.3673 3 18.0633 4.53924 20.0259 6.3676ZM1.3334 12.3591C1.88884 13.6961 3.08889 15.7016 4.88355 17.3729C6.67946 19.0442 9.06706 20.3812 12.0005 20.3812C14.934 20.3812 17.3216 19.0442 19.1175 17.3729C20.9134 15.7016 22.1135 13.6961 22.6677 12.3591C22.1135 10.9845 20.9134 8.97896 19.1175 7.3453C17.3216 5.67361 14.934 4.33701 12.0005 4.33701C9.06706 4.33701 6.67946 5.67361 4.88355 7.3453C3.08889 8.97896 1.88884 10.9845 1.3334 12.3591Z" fill="#6A6A6A"/>
</g>
</svg>
